<svg width="40" height="30" viewBox="0 0 40 30" fill="none" xmlns="http://www.w3.org/2000/svg">
<rect width="40" height="30" fill="#C64040"/>
<path d="M16.0469 15.1475C16.0469 16.415 15.9466 17.5465 15.7461 18.542C15.5527 19.5374 15.2376 20.3825 14.8008 21.0771C14.3711 21.7718 13.8053 22.3018 13.1035 22.667C12.4017 23.0322 11.5495 23.2148 10.5469 23.2148C9.28646 23.2148 8.25163 22.8962 7.44238 22.2588C6.63314 21.6143 6.03516 20.6904 5.64844 19.4873C5.26172 18.277 5.06836 16.8304 5.06836 15.1475C5.06836 13.4502 5.24382 12 5.59473 10.7969C5.9528 9.58659 6.53288 8.65918 7.33496 8.01465C8.13704 7.37012 9.20768 7.04785 10.5469 7.04785C11.8001 7.04785 12.8314 7.37012 13.6406 8.01465C14.457 8.65202 15.0622 9.57585 15.4561 10.7861C15.8499 11.9893 16.0469 13.443 16.0469 15.1475ZM8.36621 15.1475C8.36621 16.3434 8.43066 17.3424 8.55957 18.1445C8.69564 18.9395 8.92122 19.5374 9.23633 19.9385C9.55143 20.3395 9.98828 20.54 10.5469 20.54C11.0983 20.54 11.5316 20.3431 11.8467 19.9492C12.1689 19.5482 12.3981 18.9502 12.5342 18.1553C12.6702 17.3532 12.7383 16.3506 12.7383 15.1475C12.7383 13.9515 12.6702 12.9525 12.5342 12.1504C12.3981 11.3483 12.1689 10.7467 11.8467 10.3457C11.5316 9.9375 11.0983 9.7334 10.5469 9.7334C9.98828 9.7334 9.55143 9.9375 9.23633 10.3457C8.92122 10.7467 8.69564 11.3483 8.55957 12.1504C8.43066 12.9525 8.36621 13.9515 8.36621 15.1475Z" fill="white"/>
<path d="M18.1201 21.4639C18.1201 20.7907 18.3027 20.318 18.668 20.0459C19.0404 19.7738 19.488 19.6377 20.0107 19.6377C20.5192 19.6377 20.9561 19.7738 21.3213 20.0459C21.6937 20.318 21.8799 20.7907 21.8799 21.4639C21.8799 22.1084 21.6937 22.5739 21.3213 22.8604C20.9561 23.1468 20.5192 23.29 20.0107 23.29C19.488 23.29 19.0404 23.1468 18.668 22.8604C18.3027 22.5739 18.1201 22.1084 18.1201 21.4639Z" fill="white"/>
<path d="M34.9102 15.1475C34.9102 16.415 34.8099 17.5465 34.6094 18.542C34.416 19.5374 34.1009 20.3825 33.6641 21.0771C33.2344 21.7718 32.6686 22.3018 31.9668 22.667C31.265 23.0322 30.4128 23.2148 29.4102 23.2148C28.1497 23.2148 27.1149 22.8962 26.3057 22.2588C25.4964 21.6143 24.8984 20.6904 24.5117 19.4873C24.125 18.277 23.9316 16.8304 23.9316 15.1475C23.9316 13.4502 24.1071 12 24.458 10.7969C24.8161 9.58659 25.3962 8.65918 26.1982 8.01465C27.0003 7.37012 28.071 7.04785 29.4102 7.04785C30.6634 7.04785 31.6947 7.37012 32.5039 8.01465C33.3203 8.65202 33.9255 9.57585 34.3193 10.7861C34.7132 11.9893 34.9102 13.443 34.9102 15.1475ZM27.2295 15.1475C27.2295 16.3434 27.2939 17.3424 27.4229 18.1445C27.5589 18.9395 27.7845 19.5374 28.0996 19.9385C28.4147 20.3395 28.8516 20.54 29.4102 20.54C29.9616 20.54 30.3949 20.3431 30.71 19.9492C31.0322 19.5482 31.2614 18.9502 31.3975 18.1553C31.5335 17.3532 31.6016 16.3506 31.6016 15.1475C31.6016 13.9515 31.5335 12.9525 31.3975 12.1504C31.2614 11.3483 31.0322 10.7467 30.71 10.3457C30.3949 9.9375 29.9616 9.7334 29.4102 9.7334C28.8516 9.7334 28.4147 9.9375 28.0996 10.3457C27.7845 10.7467 27.5589 11.3483 27.4229 12.1504C27.2939 12.9525 27.2295 13.9515 27.2295 15.1475Z" fill="white"/>
</svg>
