<svg width="40" height="30" viewBox="0 0 40 30" fill="none" xmlns="http://www.w3.org/2000/svg">
<rect width="40" height="30" fill="#C64040"/>
<path d="M16.0469 15.1475C16.0469 16.415 15.9466 17.5465 15.7461 18.542C15.5527 19.5374 15.2376 20.3825 14.8008 21.0771C14.3711 21.7718 13.8053 22.3018 13.1035 22.667C12.4017 23.0322 11.5495 23.2148 10.5469 23.2148C9.28646 23.2148 8.25163 22.8962 7.44238 22.2588C6.63314 21.6143 6.03516 20.6904 5.64844 19.4873C5.26172 18.277 5.06836 16.8304 5.06836 15.1475C5.06836 13.4502 5.24382 12 5.59473 10.7969C5.9528 9.58659 6.53288 8.65918 7.33496 8.01465C8.13704 7.37012 9.20768 7.04785 10.5469 7.04785C11.8001 7.04785 12.8314 7.37012 13.6406 8.01465C14.457 8.65202 15.0622 9.57585 15.4561 10.7861C15.8499 11.9893 16.0469 13.443 16.0469 15.1475ZM8.36621 15.1475C8.36621 16.3434 8.43066 17.3424 8.55957 18.1445C8.69564 18.9395 8.92122 19.5374 9.23633 19.9385C9.55143 20.3395 9.98828 20.54 10.5469 20.54C11.0983 20.54 11.5316 20.3431 11.8467 19.9492C12.1689 19.5482 12.3981 18.9502 12.5342 18.1553C12.6702 17.3532 12.7383 16.3506 12.7383 15.1475C12.7383 13.9515 12.6702 12.9525 12.5342 12.1504C12.3981 11.3483 12.1689 10.7467 11.8467 10.3457C11.5316 9.9375 11.0983 9.7334 10.5469 9.7334C9.98828 9.7334 9.55143 9.9375 9.23633 10.3457C8.92122 10.7467 8.69564 11.3483 8.55957 12.1504C8.43066 12.9525 8.36621 13.9515 8.36621 15.1475Z" fill="white"/>
<path d="M18.1201 21.4639C18.1201 20.7907 18.3027 20.318 18.668 20.0459C19.0404 19.7738 19.488 19.6377 20.0107 19.6377C20.5192 19.6377 20.9561 19.7738 21.3213 20.0459C21.6937 20.318 21.8799 20.7907 21.8799 21.4639C21.8799 22.1084 21.6937 22.5739 21.3213 22.8604C20.9561 23.1468 20.5192 23.29 20.0107 23.29C19.488 23.29 19.0404 23.1468 18.668 22.8604C18.3027 22.5739 18.1201 22.1084 18.1201 21.4639Z" fill="white"/>
<path d="M29.7324 12.9668C30.6921 12.9668 31.5443 13.1494 32.2891 13.5146C33.041 13.8799 33.6318 14.417 34.0615 15.126C34.4912 15.835 34.7061 16.7087 34.7061 17.7471C34.7061 18.8786 34.4697 19.8561 33.9971 20.6797C33.5316 21.4961 32.8333 22.1227 31.9023 22.5596C30.9785 22.9964 29.8255 23.2148 28.4434 23.2148C27.6198 23.2148 26.8428 23.1432 26.1123 23C25.389 22.8639 24.7552 22.6527 24.2109 22.3662V19.498C24.7552 19.7845 25.4069 20.028 26.166 20.2285C26.9323 20.4219 27.652 20.5186 28.3252 20.5186C28.984 20.5186 29.5391 20.4326 29.9902 20.2607C30.4414 20.0817 30.7816 19.8096 31.0107 19.4443C31.2471 19.0719 31.3652 18.5993 31.3652 18.0264C31.3652 17.2601 31.1074 16.6729 30.5918 16.2646C30.0762 15.8564 29.2848 15.6523 28.2178 15.6523C27.8096 15.6523 27.3835 15.6917 26.9395 15.7705C26.5026 15.8493 26.1374 15.9281 25.8438 16.0068L24.5225 15.2979L25.1133 7.29492H33.6318V10.1094H28.0244L27.7344 13.1924C27.9779 13.1423 28.2428 13.0921 28.5293 13.042C28.8158 12.9919 29.2168 12.9668 29.7324 12.9668Z" fill="white"/>
</svg>
