<svg width="40" height="30" viewBox="0 0 40 30" fill="none" xmlns="http://www.w3.org/2000/svg">
<rect width="40" height="30" fill="#D57027"/>
<path d="M13.3613 23H10.042V13.9121C10.042 13.6615 10.0456 13.3535 10.0527 12.9883C10.0599 12.6159 10.0706 12.2363 10.085 11.8496C10.0993 11.4557 10.1136 11.1012 10.1279 10.7861C10.0492 10.8792 9.88802 11.0404 9.64453 11.2695C9.4082 11.4915 9.1862 11.6921 8.97852 11.8711L7.17383 13.3213L5.57324 11.3232L10.6328 7.29492H13.3613V23Z" fill="white"/>
<path d="M18.1201 21.4639C18.1201 20.7907 18.3027 20.318 18.668 20.0459C19.0404 19.7738 19.488 19.6377 20.0107 19.6377C20.5192 19.6377 20.9561 19.7738 21.3213 20.0459C21.6937 20.318 21.8799 20.7907 21.8799 21.4639C21.8799 22.1084 21.6937 22.5739 21.3213 22.8604C20.9561 23.1468 20.5192 23.29 20.0107 23.29C19.488 23.29 19.0404 23.1468 18.668 22.8604C18.3027 22.5739 18.1201 22.1084 18.1201 21.4639Z" fill="white"/>
<path d="M34.9102 15.1475C34.9102 16.415 34.8099 17.5465 34.6094 18.542C34.416 19.5374 34.1009 20.3825 33.6641 21.0771C33.2344 21.7718 32.6686 22.3018 31.9668 22.667C31.265 23.0322 30.4128 23.2148 29.4102 23.2148C28.1497 23.2148 27.1149 22.8962 26.3057 22.2588C25.4964 21.6143 24.8984 20.6904 24.5117 19.4873C24.125 18.277 23.9316 16.8304 23.9316 15.1475C23.9316 13.4502 24.1071 12 24.458 10.7969C24.8161 9.58659 25.3962 8.65918 26.1982 8.01465C27.0003 7.37012 28.071 7.04785 29.4102 7.04785C30.6634 7.04785 31.6947 7.37012 32.5039 8.01465C33.3203 8.65202 33.9255 9.57585 34.3193 10.7861C34.7132 11.9893 34.9102 13.443 34.9102 15.1475ZM27.2295 15.1475C27.2295 16.3434 27.2939 17.3424 27.4229 18.1445C27.5589 18.9395 27.7845 19.5374 28.0996 19.9385C28.4147 20.3395 28.8516 20.54 29.4102 20.54C29.9616 20.54 30.3949 20.3431 30.71 19.9492C31.0322 19.5482 31.2614 18.9502 31.3975 18.1553C31.5335 17.3532 31.6016 16.3506 31.6016 15.1475C31.6016 13.9515 31.5335 12.9525 31.3975 12.1504C31.2614 11.3483 31.0322 10.7467 30.71 10.3457C30.3949 9.9375 29.9616 9.7334 29.4102 9.7334C28.8516 9.7334 28.4147 9.9375 28.0996 10.3457C27.7845 10.7467 27.5589 11.3483 27.4229 12.1504C27.2939 12.9525 27.2295 13.9515 27.2295 15.1475Z" fill="white"/>
</svg>
