<svg width="40" height="30" viewBox="0 0 40 30" fill="none" xmlns="http://www.w3.org/2000/svg">
<rect width="40" height="30" fill="#D6A62B"/>
<path d="M16.1328 23H5.1543V20.6904L9.09668 16.7051C9.8916 15.8887 10.529 15.2083 11.0088 14.6641C11.4958 14.1126 11.8467 13.6113 12.0615 13.1602C12.2835 12.709 12.3945 12.2256 12.3945 11.71C12.3945 11.0869 12.2191 10.6214 11.8682 10.3135C11.5244 9.99837 11.0625 9.84082 10.4824 9.84082C9.8737 9.84082 9.28288 9.98047 8.70996 10.2598C8.13704 10.5391 7.53906 10.9365 6.91602 11.4521L5.11133 9.31445C5.5625 8.92773 6.03874 8.5625 6.54004 8.21875C7.0485 7.875 7.63574 7.59928 8.30176 7.3916C8.97493 7.17676 9.7806 7.06934 10.7188 7.06934C11.75 7.06934 12.6344 7.25553 13.3721 7.62793C14.1169 8.00033 14.6898 8.50879 15.0908 9.15332C15.4919 9.79069 15.6924 10.514 15.6924 11.3232C15.6924 12.1898 15.5205 12.9811 15.1768 13.6973C14.833 14.4134 14.3317 15.1224 13.6729 15.8242C13.0212 16.526 12.2334 17.3031 11.3096 18.1553L9.29004 20.0566V20.207H16.1328V23Z" fill="white"/>
<path d="M18.1201 21.4639C18.1201 20.7907 18.3027 20.318 18.668 20.0459C19.0404 19.7738 19.488 19.6377 20.0107 19.6377C20.5192 19.6377 20.9561 19.7738 21.3213 20.0459C21.6937 20.318 21.8799 20.7907 21.8799 21.4639C21.8799 22.1084 21.6937 22.5739 21.3213 22.8604C20.9561 23.1468 20.5192 23.29 20.0107 23.29C19.488 23.29 19.0404 23.1468 18.668 22.8604C18.3027 22.5739 18.1201 22.1084 18.1201 21.4639Z" fill="white"/>
<path d="M29.7324 12.9668C30.6921 12.9668 31.5443 13.1494 32.2891 13.5146C33.041 13.8799 33.6318 14.417 34.0615 15.126C34.4912 15.835 34.7061 16.7087 34.7061 17.7471C34.7061 18.8786 34.4697 19.8561 33.9971 20.6797C33.5316 21.4961 32.8333 22.1227 31.9023 22.5596C30.9785 22.9964 29.8255 23.2148 28.4434 23.2148C27.6198 23.2148 26.8428 23.1432 26.1123 23C25.389 22.8639 24.7552 22.6527 24.2109 22.3662V19.498C24.7552 19.7845 25.4069 20.028 26.166 20.2285C26.9323 20.4219 27.652 20.5186 28.3252 20.5186C28.984 20.5186 29.5391 20.4326 29.9902 20.2607C30.4414 20.0817 30.7816 19.8096 31.0107 19.4443C31.2471 19.0719 31.3652 18.5993 31.3652 18.0264C31.3652 17.2601 31.1074 16.6729 30.5918 16.2646C30.0762 15.8564 29.2848 15.6523 28.2178 15.6523C27.8096 15.6523 27.3835 15.6917 26.9395 15.7705C26.5026 15.8493 26.1374 15.9281 25.8438 16.0068L24.5225 15.2979L25.1133 7.29492H33.6318V10.1094H28.0244L27.7344 13.1924C27.9779 13.1423 28.2428 13.0921 28.5293 13.042C28.8158 12.9919 29.2168 12.9668 29.7324 12.9668Z" fill="white"/>
</svg>
