<svg width="40" height="30" viewBox="0 0 40 30" fill="none" xmlns="http://www.w3.org/2000/svg">
<rect width="40" height="30" fill="#93AF45"/>
<path d="M15.5205 10.8076C15.5205 11.5309 15.3701 12.1576 15.0693 12.6875C14.7686 13.2174 14.3604 13.6507 13.8447 13.9873C13.3363 14.3239 12.7633 14.571 12.126 14.7285V14.793C13.3864 14.9505 14.3424 15.3372 14.9941 15.9531C15.653 16.569 15.9824 17.3926 15.9824 18.4238C15.9824 19.3405 15.7568 20.1605 15.3057 20.8838C14.8617 21.6071 14.1742 22.1764 13.2432 22.5918C12.3122 23.0072 11.1126 23.2148 9.64453 23.2148C8.77799 23.2148 7.96875 23.1432 7.2168 23C6.47201 22.8639 5.77018 22.6527 5.11133 22.3662V19.541C5.78451 19.8848 6.48991 20.1462 7.22754 20.3252C7.96517 20.4971 8.65267 20.583 9.29004 20.583C10.4788 20.583 11.3096 20.3789 11.7822 19.9707C12.262 19.5553 12.502 18.9753 12.502 18.2305C12.502 17.7936 12.391 17.4248 12.1689 17.124C11.9469 16.8232 11.5602 16.5941 11.0088 16.4365C10.4645 16.279 9.70182 16.2002 8.7207 16.2002H7.52832V13.6543H8.74219C9.70898 13.6543 10.443 13.5648 10.9443 13.3857C11.4528 13.1995 11.7965 12.9489 11.9756 12.6338C12.1618 12.3115 12.2549 11.9463 12.2549 11.5381C12.2549 10.9795 12.083 10.5426 11.7393 10.2275C11.3955 9.91243 10.8226 9.75488 10.0205 9.75488C9.51921 9.75488 9.06087 9.81934 8.64551 9.94824C8.2373 10.07 7.86849 10.2204 7.53906 10.3994C7.20964 10.5713 6.9196 10.7396 6.66895 10.9043L5.13281 8.61621C5.7487 8.1722 6.46842 7.80339 7.29199 7.50977C8.12272 7.21615 9.111 7.06934 10.2568 7.06934C11.8753 7.06934 13.1572 7.39518 14.1025 8.04688C15.0479 8.69857 15.5205 9.61882 15.5205 10.8076Z" fill="white"/>
<path d="M18.1201 21.4639C18.1201 20.7907 18.3027 20.318 18.668 20.0459C19.0404 19.7738 19.488 19.6377 20.0107 19.6377C20.5192 19.6377 20.9561 19.7738 21.3213 20.0459C21.6937 20.318 21.8799 20.7907 21.8799 21.4639C21.8799 22.1084 21.6937 22.5739 21.3213 22.8604C20.9561 23.1468 20.5192 23.29 20.0107 23.29C19.488 23.29 19.0404 23.1468 18.668 22.8604C18.3027 22.5739 18.1201 22.1084 18.1201 21.4639Z" fill="white"/>
<path d="M34.9102 15.1475C34.9102 16.415 34.8099 17.5465 34.6094 18.542C34.416 19.5374 34.1009 20.3825 33.6641 21.0771C33.2344 21.7718 32.6686 22.3018 31.9668 22.667C31.265 23.0322 30.4128 23.2148 29.4102 23.2148C28.1497 23.2148 27.1149 22.8962 26.3057 22.2588C25.4964 21.6143 24.8984 20.6904 24.5117 19.4873C24.125 18.277 23.9316 16.8304 23.9316 15.1475C23.9316 13.4502 24.1071 12 24.458 10.7969C24.8161 9.58659 25.3962 8.65918 26.1982 8.01465C27.0003 7.37012 28.071 7.04785 29.4102 7.04785C30.6634 7.04785 31.6947 7.37012 32.5039 8.01465C33.3203 8.65202 33.9255 9.57585 34.3193 10.7861C34.7132 11.9893 34.9102 13.443 34.9102 15.1475ZM27.2295 15.1475C27.2295 16.3434 27.2939 17.3424 27.4229 18.1445C27.5589 18.9395 27.7845 19.5374 28.0996 19.9385C28.4147 20.3395 28.8516 20.54 29.4102 20.54C29.9616 20.54 30.3949 20.3431 30.71 19.9492C31.0322 19.5482 31.2614 18.9502 31.3975 18.1553C31.5335 17.3532 31.6016 16.3506 31.6016 15.1475C31.6016 13.9515 31.5335 12.9525 31.3975 12.1504C31.2614 11.3483 31.0322 10.7467 30.71 10.3457C30.3949 9.9375 29.9616 9.7334 29.4102 9.7334C28.8516 9.7334 28.4147 9.9375 28.0996 10.3457C27.7845 10.7467 27.5589 11.3483 27.4229 12.1504C27.2939 12.9525 27.2295 13.9515 27.2295 15.1475Z" fill="white"/>
</svg>
