<svg width="40" height="30" viewBox="0 0 40 30" fill="none" xmlns="http://www.w3.org/2000/svg">
<rect width="40" height="30" fill="#93AF45"/>
<path d="M15.5205 10.8076C15.5205 11.5309 15.3701 12.1576 15.0693 12.6875C14.7686 13.2174 14.3604 13.6507 13.8447 13.9873C13.3363 14.3239 12.7633 14.571 12.126 14.7285V14.793C13.3864 14.9505 14.3424 15.3372 14.9941 15.9531C15.653 16.569 15.9824 17.3926 15.9824 18.4238C15.9824 19.3405 15.7568 20.1605 15.3057 20.8838C14.8617 21.6071 14.1742 22.1764 13.2432 22.5918C12.3122 23.0072 11.1126 23.2148 9.64453 23.2148C8.77799 23.2148 7.96875 23.1432 7.2168 23C6.47201 22.8639 5.77018 22.6527 5.11133 22.3662V19.541C5.78451 19.8848 6.48991 20.1462 7.22754 20.3252C7.96517 20.4971 8.65267 20.583 9.29004 20.583C10.4788 20.583 11.3096 20.3789 11.7822 19.9707C12.262 19.5553 12.502 18.9753 12.502 18.2305C12.502 17.7936 12.391 17.4248 12.1689 17.124C11.9469 16.8232 11.5602 16.5941 11.0088 16.4365C10.4645 16.279 9.70182 16.2002 8.7207 16.2002H7.52832V13.6543H8.74219C9.70898 13.6543 10.443 13.5648 10.9443 13.3857C11.4528 13.1995 11.7965 12.9489 11.9756 12.6338C12.1618 12.3115 12.2549 11.9463 12.2549 11.5381C12.2549 10.9795 12.083 10.5426 11.7393 10.2275C11.3955 9.91243 10.8226 9.75488 10.0205 9.75488C9.51921 9.75488 9.06087 9.81934 8.64551 9.94824C8.2373 10.07 7.86849 10.2204 7.53906 10.3994C7.20964 10.5713 6.9196 10.7396 6.66895 10.9043L5.13281 8.61621C5.7487 8.1722 6.46842 7.80339 7.29199 7.50977C8.12272 7.21615 9.111 7.06934 10.2568 7.06934C11.8753 7.06934 13.1572 7.39518 14.1025 8.04688C15.0479 8.69857 15.5205 9.61882 15.5205 10.8076Z" fill="white"/>
<path d="M18.1201 21.4639C18.1201 20.7907 18.3027 20.318 18.668 20.0459C19.0404 19.7738 19.488 19.6377 20.0107 19.6377C20.5192 19.6377 20.9561 19.7738 21.3213 20.0459C21.6937 20.318 21.8799 20.7907 21.8799 21.4639C21.8799 22.1084 21.6937 22.5739 21.3213 22.8604C20.9561 23.1468 20.5192 23.29 20.0107 23.29C19.488 23.29 19.0404 23.1468 18.668 22.8604C18.3027 22.5739 18.1201 22.1084 18.1201 21.4639Z" fill="white"/>
<path d="M29.7324 12.9668C30.6921 12.9668 31.5443 13.1494 32.2891 13.5146C33.041 13.8799 33.6318 14.417 34.0615 15.126C34.4912 15.835 34.7061 16.7087 34.7061 17.7471C34.7061 18.8786 34.4697 19.8561 33.9971 20.6797C33.5316 21.4961 32.8333 22.1227 31.9023 22.5596C30.9785 22.9964 29.8255 23.2148 28.4434 23.2148C27.6198 23.2148 26.8428 23.1432 26.1123 23C25.389 22.8639 24.7552 22.6527 24.2109 22.3662V19.498C24.7552 19.7845 25.4069 20.028 26.166 20.2285C26.9323 20.4219 27.652 20.5186 28.3252 20.5186C28.984 20.5186 29.5391 20.4326 29.9902 20.2607C30.4414 20.0817 30.7816 19.8096 31.0107 19.4443C31.2471 19.0719 31.3652 18.5993 31.3652 18.0264C31.3652 17.2601 31.1074 16.6729 30.5918 16.2646C30.0762 15.8564 29.2848 15.6523 28.2178 15.6523C27.8096 15.6523 27.3835 15.6917 26.9395 15.7705C26.5026 15.8493 26.1374 15.9281 25.8438 16.0068L24.5225 15.2979L25.1133 7.29492H33.6318V10.1094H28.0244L27.7344 13.1924C27.9779 13.1423 28.2428 13.0921 28.5293 13.042C28.8158 12.9919 29.2168 12.9668 29.7324 12.9668Z" fill="white"/>
</svg>
